<svg width="25" height="24" viewBox="0 0 25 24" fill="none" xmlns="http://www.w3.org/2000/svg">
<path d="M22.75 10.5H5.99501L13.315 3.17999C13.9 2.59499 13.9 1.63499 13.315 1.04999C13.1762 0.910938 13.0114 0.800617 12.8299 0.725345C12.6485 0.650073 12.454 0.611328 12.2575 0.611328C12.0611 0.611328 11.8665 0.650073 11.6851 0.725345C11.5036 0.800617 11.3388 0.910938 11.2 1.04999L1.31501 10.935C1.17595 11.0738 1.06563 11.2386 0.99036 11.4201C0.915088 11.6015 0.876343 11.796 0.876343 11.9925C0.876343 12.1889 0.915088 12.3835 0.99036 12.5649C1.06563 12.7464 1.17595 12.9112 1.31501 13.05L11.2 22.935C11.3389 23.0739 11.5037 23.184 11.6852 23.2592C11.8666 23.3343 12.0611 23.373 12.2575 23.373C12.4539 23.373 12.6484 23.3343 12.8298 23.2592C13.0113 23.184 13.1761 23.0739 13.315 22.935C13.4539 22.7961 13.564 22.6313 13.6392 22.4498C13.7144 22.2684 13.753 22.0739 13.753 21.8775C13.753 21.6811 13.7144 21.4866 13.6392 21.3052C13.564 21.1237 13.4539 20.9589 13.315 20.82L5.99501 13.5H22.75C23.575 13.5 24.25 12.825 24.25 12C24.25 11.175 23.575 10.5 22.75 10.5Z" fill="white"/>
</svg>
