<svg width="20" height="21" viewBox="0 0 20 21" fill="none" xmlns="http://www.w3.org/2000/svg">
<g clip-path="url(#clip0_133_609)">
<path d="M19.0449 20.6918L15.4275 19.4969C13.9381 20.2734 11.9356 20.6966 10.25 20.7351V20.7367H10.1694C10.1125 20.7376 10.0561 20.738 10 20.738H9.75V20.7336C7.12307 20.6696 4.61716 19.5985 2.75409 17.7364C0.890985 15.8743 -0.181435 13.3689 -0.246824 10.742H-0.250167L-0.25 10.4921L-0.25 10.492L-0.25 10.4918L-0.250133 10.242H-0.246792C-0.181064 7.61533 0.891528 5.11154 2.75457 3.24974C4.6176 1.38795 7.1233 0.31706 9.75 0.253046V0.25L9.99999 0.25C9.99999 0.25 10 0.25 10 0.25C10 0.25 10 0.25 10 0.25L10.25 0.25V0.253046C12.8767 0.31706 15.3824 1.38795 17.2454 3.24974C19.1085 5.11156 20.1811 7.61662 20.2468 10.2433H20.25V10.4932V10.4933L20.2502 10.7433H20.2477C20.2157 12.4821 19.848 14.4146 19.0022 15.9414L20.2023 19.5297L19.0449 20.6918ZM19.0449 20.6918L19.0455 20.692M19.0449 20.6918L19.0455 20.692M19.0467 20.6924L19.2829 20.7705L19.2938 20.7376C19.3782 20.7412 19.4631 20.7332 19.5461 20.7134C19.7117 20.6739 19.863 20.5891 19.9831 20.4684C20.1032 20.3477 20.1874 20.196 20.2261 20.0302C20.2454 19.9472 20.2531 19.8624 20.249 19.7781L20.2817 19.7671L20.2029 19.5316C20.2028 19.5312 20.2027 19.5308 20.2025 19.5304C20.2025 19.5303 20.2025 19.5302 20.2024 19.53L19.0467 20.6924ZM19.0467 20.6924C19.0463 20.6923 19.0459 20.6921 19.0455 20.692M19.0467 20.6924L19.0455 20.692M14.8605 17.7151C13.6731 18.4293 11.768 18.876 10.1559 18.9033H10C5.35125 18.9033 1.58333 15.1378 1.58333 10.492C1.5851 8.26099 2.47258 6.12324 4.05081 4.54623C5.62905 2.9692 7.76888 2.08333 10 2.08333C10 2.08333 10 2.08333 10 2.08333C14.6488 2.08334 18.4167 5.84892 18.4167 10.4933C18.4167 12.2373 18.028 14.0839 17.2322 15.3321C17.2308 15.3343 17.2295 15.3365 17.2281 15.3386L17.228 15.3388L17.0935 15.549L17.0937 15.5491L17.056 15.6081L16.9916 15.7089L17.0297 15.8224L17.1309 16.1233L17.131 16.1237L17.8846 18.3776L15.8581 17.7088L15.8585 17.7077L15.6211 17.6293L15.3304 17.5333L15.2212 17.4972L15.1227 17.5567L14.8607 17.7149L14.8605 17.7151Z" fill="white" stroke="white" stroke-width="0.5"/>
</g>
<defs>
<clipPath id="clip0_133_609">
<rect width="20" height="20" fill="white" transform="translate(0 0.5)"/>
</clipPath>
</defs>
</svg>
