<svg width="81" height="80" viewBox="0 0 81 80" fill="none" xmlns="http://www.w3.org/2000/svg">
<g clip-path="url(#clip0_213_431)">
<path d="M80.5454 40.0001C80.5454 17.9087 62.6368 9.15527e-05 40.5454 9.15527e-05C18.454 9.15527e-05 0.54541 17.9087 0.54541 40.0001C0.54541 59.9652 15.1728 76.5134 34.2954 79.5142V51.5626H24.1392V40.0001H34.2954V31.1876C34.2954 21.1626 40.2671 15.6251 49.404 15.6251C53.7803 15.6251 58.3579 16.4063 58.3579 16.4063V26.2501H53.314C48.345 26.2501 46.7954 29.3334 46.7954 32.4967V40.0001H57.8892L56.1157 51.5626H46.7954V79.5142C65.918 76.5134 80.5454 59.9652 80.5454 40.0001Z" fill="#1877F2"/>
<path d="M56.1157 51.5625L57.8892 40H46.7954V32.4966C46.7954 29.3334 48.345 26.25 53.314 26.25H58.3579V16.4062C58.3579 16.4062 53.7803 15.625 49.404 15.625C40.2671 15.625 34.2954 21.1625 34.2954 31.1875V40H24.1392V51.5625H34.2954V79.5141C36.3319 79.8336 38.4192 80 40.5454 80C42.6717 80 44.7589 79.8336 46.7954 79.5141V51.5625H56.1157Z" fill="white"/>
</g>
<defs>
<clipPath id="clip0_213_431">
<rect width="80" height="80" fill="white" transform="translate(0.54541)"/>
</clipPath>
</defs>
</svg>
