<svg width="200" height="200" viewBox="0 0 200 200" fill="none" xmlns="http://www.w3.org/2000/svg">
<path d="M99.9999 25L191.667 93.75L181.667 107.083L166.667 95.8333V175H33.3333V95.8333L18.3333 107.083L8.33325 93.75L99.9999 25ZM61.2499 100.417C61.2499 107.778 65.2082 115.625 73.1249 123.958C81.0416 132.292 89.9999 140.972 99.9999 150C110 140.972 118.958 132.292 126.875 123.958C134.792 115.625 138.75 107.778 138.75 100.417C138.75 94.3056 136.667 89.2361 132.5 85.2083C128.333 81.1806 123.333 79.1667 117.5 79.1667C113.889 79.1667 110.589 79.8972 107.6 81.3583C104.611 82.8194 102.078 84.7278 99.9999 87.0833C97.9166 84.7222 95.3138 82.8139 92.1916 81.3583C89.0694 79.9028 85.8388 79.1722 82.4999 79.1667C76.6666 79.1667 71.6666 81.1806 67.4999 85.2083C63.3333 89.2361 61.2499 94.3056 61.2499 100.417Z" fill="#D948BF"/>
</svg>
