<svg width="22" height="23" viewBox="0 0 22 23" fill="none" xmlns="http://www.w3.org/2000/svg">
<path d="M10.235 1.87401C9.86698 2.02601 9.53798 2.35601 8.87898 3.01401C8.21998 3.67401 7.88998 4.00301 7.73898 4.37001C7.63843 4.6127 7.58668 4.87282 7.58668 5.13551C7.58668 5.39821 7.63843 5.65832 7.73898 5.90101C7.88998 6.26901 8.21898 6.59801 8.87898 7.25701C9.53698 7.91601 9.86698 8.24601 10.235 8.39701C10.7248 8.5998 11.2751 8.5998 11.765 8.39701C12.133 8.24601 12.462 7.91701 13.121 7.25701C13.78 6.59701 14.109 6.26901 14.261 5.90101C14.4638 5.41117 14.4638 4.86085 14.261 4.37101C14.109 4.00301 13.781 3.67401 13.121 3.01501C12.461 2.35601 12.133 2.02601 11.765 1.87401C11.2751 1.67123 10.7248 1.67123 10.235 1.87401ZM3.86998 8.23801C3.50298 8.39001 3.17298 8.71901 2.51498 9.37801C1.85498 10.038 1.52598 10.367 1.37398 10.734C1.27343 10.9767 1.22168 11.2368 1.22168 11.4995C1.22168 11.7622 1.27343 12.0223 1.37398 12.265C1.52598 12.633 1.85598 12.962 2.51398 13.621C3.17398 14.28 3.50298 14.609 3.86998 14.761C4.11266 14.8616 4.37278 14.9133 4.63548 14.9133C4.89817 14.9133 5.15829 14.8616 5.40098 14.761C5.76898 14.609 6.09798 14.28 6.75698 13.621C7.41598 12.962 7.74498 12.633 7.89698 12.265C8.09976 11.7752 8.09976 11.2249 7.89698 10.735C7.74498 10.367 7.41698 10.037 6.75698 9.37801C6.09698 8.71901 5.76898 8.39001 5.40098 8.23801C4.91113 8.03523 4.35982 8.03523 3.86998 8.23801ZM15.243 9.37801C14.584 10.038 14.255 10.367 14.103 10.734C14.0024 10.9767 13.9507 11.2368 13.9507 11.4995C13.9507 11.7622 14.0024 12.0223 14.103 12.265C14.255 12.633 14.584 12.962 15.243 13.621C15.902 14.28 16.232 14.609 16.599 14.761C17.0888 14.9638 17.6391 14.9638 18.129 14.761C18.497 14.609 18.827 14.28 19.486 13.621C20.145 12.962 20.473 12.633 20.626 12.265C20.8288 11.7752 20.8288 11.2249 20.626 10.735C20.473 10.367 20.145 10.037 19.486 9.37801C18.826 8.71901 18.497 8.39001 18.13 8.23801C17.8873 8.13747 17.6272 8.08572 17.3645 8.08572C17.1018 8.08572 16.8417 8.13747 16.599 8.23801C16.232 8.39001 15.902 8.71901 15.243 9.37801ZM10.235 14.602C9.86698 14.754 9.53798 15.084 8.87898 15.742C8.21998 16.402 7.88998 16.731 7.73898 17.099C7.53619 17.5889 7.53619 18.1392 7.73898 18.629C7.88998 18.997 8.21898 19.326 8.87898 19.985C9.53698 20.644 9.86698 20.974 10.235 21.125C10.7248 21.3278 11.2751 21.3278 11.765 21.125C12.133 20.974 12.462 20.645 13.121 19.985C13.78 19.325 14.109 18.997 14.261 18.629C14.464 18.139 14.464 17.589 14.261 17.099C14.109 16.731 13.781 16.401 13.121 15.743C12.462 15.083 12.133 14.754 11.765 14.602C11.2751 14.3992 10.7248 14.3992 10.235 14.602Z" stroke="white" stroke-width="2" stroke-linecap="round" stroke-linejoin="round"/>
</svg>
