<svg width="200" height="200" viewBox="0 0 200 200" fill="none" xmlns="http://www.w3.org/2000/svg">
<path d="M66.6667 97.9167V62.5C66.6667 59.0278 67.8833 56.0778 70.3167 53.65C72.75 51.2222 75.7 50.0056 79.1667 50C82.6333 49.9944 85.5861 51.2111 88.025 53.65C90.4639 56.0889 91.6778 59.0389 91.6667 62.5V97.9167C91.6667 101.389 90.4528 104.342 88.025 106.775C85.5972 109.208 82.6444 110.422 79.1667 110.417C75.6889 110.411 72.7389 109.197 70.3167 106.775C67.8944 104.353 66.6778 101.4 66.6667 97.9167ZM108.333 96.0416V29.1667C108.333 25.6944 109.55 22.7444 111.983 20.3167C114.417 17.8889 117.367 16.6722 120.833 16.6667C124.3 16.6611 127.253 17.8778 129.692 20.3167C132.131 22.7555 133.344 25.7055 133.333 29.1667V96.0416C133.333 100.208 132.05 103.333 129.483 105.417C126.917 107.5 124.033 108.542 120.833 108.542C117.633 108.542 114.753 107.5 112.192 105.417C109.631 103.333 108.344 100.208 108.333 96.0416ZM25 124.792V95.8333C25 92.3611 26.2167 89.4111 28.65 86.9833C31.0833 84.5555 34.0333 83.3389 37.5 83.3333C40.9667 83.3278 43.9194 84.5444 46.3583 86.9833C48.7972 89.4222 50.0111 92.3722 50 95.8333V124.792C50 128.958 48.7167 132.083 46.15 134.167C43.5833 136.25 40.7 137.292 37.5 137.292C34.3 137.292 31.4194 136.25 28.8583 134.167C26.2972 132.083 25.0111 128.958 25 124.792ZM45 175.417C41.3889 175.417 38.8528 173.717 37.3917 170.317C35.9306 166.917 36.5222 163.894 39.1667 161.25L73.3333 127.083C74.8611 125.556 76.7028 124.722 78.8583 124.583C81.0139 124.444 82.9222 125.139 84.5833 126.667L108.333 147.083L155 100.417H150C147.639 100.417 145.661 99.6167 144.067 98.0167C142.472 96.4167 141.672 94.4389 141.667 92.0833C141.661 89.7278 142.461 87.75 144.067 86.15C145.672 84.55 147.65 83.75 150 83.75H175C177.361 83.75 179.342 84.55 180.942 86.15C182.542 87.75 183.339 89.7278 183.333 92.0833V117.083C183.333 119.444 182.533 121.425 180.933 123.025C179.333 124.625 177.356 125.422 175 125.417C172.644 125.411 170.667 124.611 169.067 123.017C167.467 121.422 166.667 119.444 166.667 117.083V112.083L114.583 164.167C113.056 165.694 111.214 166.528 109.058 166.667C106.903 166.806 104.994 166.111 103.333 164.583L79.5833 144.167L50.8333 172.917C50.1389 173.611 49.2722 174.203 48.2333 174.692C47.1944 175.181 46.1167 175.422 45 175.417Z" fill="#D948BF"/>
</svg>
