<svg width="78" height="63" viewBox="0 0 78 63" fill="none" xmlns="http://www.w3.org/2000/svg">
<path d="M9.4275 60.976C9.4275 60.88 9.44883 60.7787 9.4915 60.672C9.54483 60.5653 9.59817 60.448 9.6515 60.32C9.70483 60.192 9.75283 60.0533 9.7955 59.904C9.84883 59.744 9.8755 59.568 9.8755 59.376C9.8755 58.8533 9.8915 58.3307 9.9235 57.808C9.9555 57.2853 9.9715 56.7627 9.9715 56.24C9.9715 55.184 9.99817 54.1333 10.0515 53.088C10.1048 52.0427 10.1315 50.992 10.1315 49.936C10.1315 49.808 10.1155 49.6853 10.0835 49.568C10.0622 49.4507 10.0302 49.3333 9.9875 49.216L9.8755 48.864C9.83283 48.7467 9.7955 48.6293 9.7635 48.512C9.74217 48.3947 9.7315 48.272 9.7315 48.144C9.7315 47.952 9.79017 47.792 9.9075 47.664C10.0248 47.536 10.1635 47.4347 10.3235 47.36C10.4942 47.2747 10.6755 47.216 10.8675 47.184C11.0595 47.1413 11.2302 47.12 11.3795 47.12C11.4862 47.12 11.6302 47.136 11.8115 47.168C11.9928 47.1893 12.1688 47.232 12.3395 47.296C12.5208 47.36 12.6755 47.4453 12.8035 47.552C12.9315 47.648 12.9955 47.7707 12.9955 47.92C12.9955 48.0267 12.9742 48.1173 12.9315 48.192C12.8888 48.256 12.8408 48.32 12.7875 48.384C12.7448 48.4373 12.7022 48.4853 12.6595 48.528C12.6168 48.5707 12.5955 48.6133 12.5955 48.656C12.5955 48.72 12.6008 48.7627 12.6115 48.784C12.6328 48.8053 12.6755 48.816 12.7395 48.816C13.2515 48.816 13.7688 48.88 14.2915 49.008C14.8142 49.136 15.2835 49.344 15.6995 49.632C16.1262 49.9093 16.4728 50.2667 16.7395 50.704C17.0168 51.1413 17.1555 51.6693 17.1555 52.288C17.1555 52.7467 17.0915 53.12 16.9635 53.408C16.8355 53.696 16.5848 53.984 16.2115 54.272C16.1368 54.3253 16.0195 54.3893 15.8595 54.464C15.6995 54.5387 15.5342 54.6133 15.3635 54.688C15.1928 54.752 15.0435 54.816 14.9155 54.88C14.7875 54.9333 14.7235 54.976 14.7235 55.008C14.7235 55.04 14.8515 55.1413 15.1075 55.312C15.3742 55.4827 15.6622 55.7013 15.9715 55.968C16.2915 56.2347 16.5795 56.5493 16.8355 56.912C17.1022 57.264 17.2355 57.648 17.2355 58.064C17.2355 58.7893 17.0968 59.4027 16.8195 59.904C16.5422 60.4053 16.1688 60.8107 15.6995 61.12C15.2302 61.4293 14.6862 61.6533 14.0675 61.792C13.4488 61.9307 12.8035 62 12.1315 62H11.0755C10.9262 62 10.7555 61.984 10.5635 61.952C10.3715 61.9093 10.1902 61.8507 10.0195 61.776C9.8595 61.6907 9.72083 61.584 9.6035 61.456C9.48617 61.3173 9.4275 61.1573 9.4275 60.976ZM12.1315 53.424C12.1315 53.5413 12.1582 53.6533 12.2115 53.76C12.2648 53.856 12.3608 53.904 12.4995 53.904C12.8088 53.904 13.1075 53.8933 13.3955 53.872C13.6835 53.84 13.9448 53.7707 14.1795 53.664C14.4142 53.5573 14.6008 53.4027 14.7395 53.2C14.8782 52.9867 14.9475 52.704 14.9475 52.352C14.9475 52.0107 14.8728 51.7227 14.7235 51.488C14.5742 51.2427 14.3822 51.0453 14.1475 50.896C13.9235 50.736 13.6675 50.624 13.3795 50.56C13.1022 50.4853 12.8302 50.448 12.5635 50.448C12.4462 50.448 12.3662 50.4853 12.3235 50.56C12.2808 50.624 12.2488 50.7147 12.2275 50.832C12.1635 51.248 12.1315 51.68 12.1315 52.128C12.1315 52.5653 12.1315 52.9973 12.1315 53.424ZM12.6275 60.048C12.9475 60.048 13.2515 60.016 13.5395 59.952C13.8275 59.888 14.0782 59.7867 14.2915 59.648C14.5155 59.5093 14.6915 59.328 14.8195 59.104C14.9475 58.88 15.0115 58.608 15.0115 58.288C15.0115 58.0533 14.9208 57.8133 14.7395 57.568C14.5688 57.312 14.3555 57.0827 14.0995 56.88C13.8542 56.6773 13.5928 56.512 13.3155 56.384C13.0488 56.2453 12.8195 56.176 12.6275 56.176C12.4355 56.176 12.2915 56.2613 12.1955 56.432C12.0995 56.592 12.0302 56.784 11.9875 57.008C11.9555 57.232 11.9395 57.4613 11.9395 57.696C11.9395 57.9307 11.9395 58.112 11.9395 58.24C11.9395 58.3467 11.9448 58.5013 11.9555 58.704C11.9768 58.896 12.0142 59.0933 12.0675 59.296C12.1208 59.4987 12.1902 59.6747 12.2755 59.824C12.3715 59.9733 12.4888 60.048 12.6275 60.048ZM18.0128 56.912C18.0128 56.528 18.0448 56.048 18.1088 55.472C18.1728 54.896 18.2634 54.304 18.3808 53.696C18.5088 53.0773 18.6581 52.4853 18.8288 51.92C18.9994 51.344 19.1968 50.8693 19.4208 50.496C19.6021 50.1867 19.7941 49.8987 19.9968 49.632C20.2101 49.3547 20.4448 49.1147 20.7008 48.912C20.9568 48.6987 21.2394 48.5333 21.5488 48.416C21.8688 48.288 22.2208 48.224 22.6048 48.224C23.0741 48.224 23.5061 48.32 23.9008 48.512C24.3061 48.704 24.6688 48.96 24.9888 49.28C25.3194 49.5893 25.6021 49.9413 25.8368 50.336C26.0821 50.72 26.2848 51.1147 26.4448 51.52C26.5514 51.7867 26.6368 52.112 26.7008 52.496C26.7754 52.88 26.8341 53.28 26.8767 53.696C26.9301 54.1013 26.9674 54.5013 26.9888 54.896C27.0101 55.2907 27.0208 55.632 27.0208 55.92C27.0208 56.6667 26.9514 57.4133 26.8128 58.16C26.6848 58.9067 26.4501 59.5787 26.1088 60.176C25.7674 60.7627 25.2928 61.2427 24.6848 61.616C24.0874 61.9787 23.3141 62.16 22.3648 62.16C21.5008 62.16 20.7861 62.0267 20.2208 61.76C19.6661 61.4827 19.2234 61.1093 18.8928 60.64C18.5728 60.16 18.3434 59.6 18.2048 58.96C18.0768 58.32 18.0128 57.6373 18.0128 56.912ZM24.6528 54.896C24.7274 54.8 24.7594 54.608 24.7488 54.32C24.7381 54.032 24.6954 53.7013 24.6208 53.328C24.5461 52.9547 24.4448 52.5653 24.3168 52.16C24.1888 51.744 24.0394 51.3653 23.8688 51.024C23.6981 50.6827 23.5114 50.4 23.3088 50.176C23.1061 49.952 22.8928 49.84 22.6688 49.84C22.4661 49.84 22.2794 49.888 22.1088 49.984C21.9381 50.0693 21.7888 50.1867 21.6608 50.336C21.5434 50.4747 21.4474 50.64 21.3728 50.832C21.3088 51.0133 21.2714 51.2 21.2608 51.392C21.2501 51.7333 21.3141 52.0747 21.4528 52.416C21.5914 52.7467 21.7728 53.056 21.9968 53.344C22.2314 53.632 22.4874 53.8933 22.7648 54.128C23.0421 54.3627 23.3088 54.5547 23.5648 54.704C23.8208 54.8427 24.0448 54.9333 24.2368 54.976C24.4394 55.0187 24.5781 54.992 24.6528 54.896ZM20.8768 54.816C20.7808 54.624 20.7008 54.5973 20.6368 54.736C20.5834 54.864 20.5408 55.0667 20.5088 55.344C20.4768 55.6213 20.4501 55.9307 20.4288 56.272C20.4181 56.6027 20.4128 56.8747 20.4128 57.088C20.4128 57.3867 20.4341 57.7333 20.4768 58.128C20.5301 58.5227 20.6261 58.9013 20.7648 59.264C20.9141 59.6267 21.1168 59.936 21.3728 60.192C21.6394 60.4373 21.9861 60.56 22.4128 60.56C22.7221 60.56 22.9994 60.464 23.2448 60.272C23.4901 60.0693 23.7034 59.824 23.8848 59.536C24.0768 59.2373 24.2368 58.9173 24.3648 58.576C24.4928 58.224 24.5888 57.904 24.6528 57.616C24.7274 57.3173 24.7701 57.072 24.7808 56.88C24.7914 56.6773 24.7701 56.576 24.7168 56.576C24.6421 56.576 24.4394 56.5707 24.1088 56.56C23.7888 56.5493 23.4261 56.496 23.0208 56.4C22.6154 56.2933 22.2101 56.1173 21.8048 55.872C21.4101 55.6267 21.1008 55.2747 20.8768 54.816ZM27.9659 56.912C27.9659 56.528 27.9979 56.048 28.0619 55.472C28.1259 54.896 28.2165 54.304 28.3339 53.696C28.4619 53.0773 28.6112 52.4853 28.7819 51.92C28.9525 51.344 29.1499 50.8693 29.3739 50.496C29.5552 50.1867 29.7472 49.8987 29.9499 49.632C30.1632 49.3547 30.3979 49.1147 30.6539 48.912C30.9099 48.6987 31.1925 48.5333 31.5019 48.416C31.8219 48.288 32.1739 48.224 32.5579 48.224C33.0272 48.224 33.4592 48.32 33.8539 48.512C34.2592 48.704 34.6219 48.96 34.9419 49.28C35.2725 49.5893 35.5552 49.9413 35.7899 50.336C36.0352 50.72 36.2379 51.1147 36.3979 51.52C36.5045 51.7867 36.5899 52.112 36.6539 52.496C36.7285 52.88 36.7872 53.28 36.8299 53.696C36.8832 54.1013 36.9205 54.5013 36.9419 54.896C36.9632 55.2907 36.9739 55.632 36.9739 55.92C36.9739 56.6667 36.9045 57.4133 36.7659 58.16C36.6379 58.9067 36.4032 59.5787 36.0619 60.176C35.7205 60.7627 35.2459 61.2427 34.6379 61.616C34.0405 61.9787 33.2672 62.16 32.3179 62.16C31.4539 62.16 30.7392 62.0267 30.1739 61.76C29.6192 61.4827 29.1765 61.1093 28.8459 60.64C28.5259 60.16 28.2965 59.6 28.1579 58.96C28.0299 58.32 27.9659 57.6373 27.9659 56.912ZM34.6059 54.896C34.6805 54.8 34.7125 54.608 34.7019 54.32C34.6912 54.032 34.6485 53.7013 34.5739 53.328C34.4992 52.9547 34.3979 52.5653 34.2699 52.16C34.1419 51.744 33.9925 51.3653 33.8219 51.024C33.6512 50.6827 33.4645 50.4 33.2619 50.176C33.0592 49.952 32.8459 49.84 32.6219 49.84C32.4192 49.84 32.2325 49.888 32.0619 49.984C31.8912 50.0693 31.7419 50.1867 31.6139 50.336C31.4965 50.4747 31.4005 50.64 31.3259 50.832C31.2619 51.0133 31.2245 51.2 31.2139 51.392C31.2032 51.7333 31.2672 52.0747 31.4059 52.416C31.5445 52.7467 31.7259 53.056 31.9499 53.344C32.1845 53.632 32.4405 53.8933 32.7179 54.128C32.9952 54.3627 33.2619 54.5547 33.5179 54.704C33.7739 54.8427 33.9979 54.9333 34.1899 54.976C34.3925 55.0187 34.5312 54.992 34.6059 54.896ZM30.8299 54.816C30.7339 54.624 30.6539 54.5973 30.5899 54.736C30.5365 54.864 30.4939 55.0667 30.4619 55.344C30.4299 55.6213 30.4032 55.9307 30.3819 56.272C30.3712 56.6027 30.3659 56.8747 30.3659 57.088C30.3659 57.3867 30.3872 57.7333 30.4299 58.128C30.4832 58.5227 30.5792 58.9013 30.7179 59.264C30.8672 59.6267 31.0699 59.936 31.3259 60.192C31.5925 60.4373 31.9392 60.56 32.3659 60.56C32.6752 60.56 32.9525 60.464 33.1979 60.272C33.4432 60.0693 33.6565 59.824 33.8379 59.536C34.0299 59.2373 34.1899 58.9173 34.3179 58.576C34.4459 58.224 34.5419 57.904 34.6059 57.616C34.6805 57.3173 34.7232 57.072 34.7339 56.88C34.7445 56.6773 34.7232 56.576 34.6699 56.576C34.5952 56.576 34.3925 56.5707 34.0619 56.56C33.7419 56.5493 33.3792 56.496 32.9739 56.4C32.5685 56.2933 32.1632 56.1173 31.7579 55.872C31.3632 55.6267 31.0539 55.2747 30.8299 54.816ZM40.287 59.424C40.287 59.6907 40.2977 59.9627 40.319 60.24C40.3403 60.5173 40.415 60.7733 40.543 61.008C40.5963 61.104 40.6497 61.2 40.703 61.296C40.767 61.3813 40.799 61.4827 40.799 61.6C40.799 61.7813 40.7403 61.936 40.623 62.064C40.5057 62.192 40.3617 62.2987 40.191 62.384C40.031 62.4693 39.855 62.5333 39.663 62.576C39.4817 62.6187 39.3163 62.64 39.167 62.64C39.007 62.64 38.8417 62.6187 38.671 62.576C38.511 62.544 38.3617 62.4853 38.223 62.4C38.0843 62.3147 37.967 62.208 37.871 62.08C37.7857 61.952 37.743 61.792 37.743 61.6C37.743 61.5253 37.7643 61.4667 37.807 61.424C37.8497 61.3813 37.8977 61.3227 37.951 61.248C38.0043 61.1733 38.0523 61.0667 38.095 60.928C38.1377 60.7893 38.159 60.592 38.159 60.336C38.159 60.0587 38.1483 59.776 38.127 59.488C38.1057 59.2 38.0897 58.9173 38.079 58.64C38.0363 57.0933 37.9883 55.5573 37.935 54.032C37.8923 52.496 37.871 50.9547 37.871 49.408C37.871 49.3013 37.8337 49.2107 37.759 49.136C37.6843 49.0507 37.647 48.9547 37.647 48.848C37.647 48.6773 37.7003 48.5333 37.807 48.416C37.9137 48.288 38.0417 48.1867 38.191 48.112C38.351 48.0373 38.5163 47.984 38.687 47.952C38.8683 47.92 39.0283 47.904 39.167 47.904C39.327 47.904 39.5083 47.9253 39.711 47.968C39.9137 48 40.1057 48.064 40.287 48.16C40.4683 48.2453 40.623 48.3573 40.751 48.496C40.879 48.6347 40.943 48.8 40.943 48.992C40.943 49.0667 40.9217 49.1307 40.879 49.184C40.847 49.2373 40.8043 49.2907 40.751 49.344C40.6977 49.3867 40.6497 49.4347 40.607 49.488C40.5643 49.5413 40.5323 49.6 40.511 49.664C40.447 49.952 40.3937 50.2827 40.351 50.656C40.3083 51.0293 40.2763 51.4187 40.255 51.824C40.2337 52.2187 40.2177 52.608 40.207 52.992C40.207 53.376 40.207 53.7227 40.207 54.032C40.207 54.064 40.207 54.1333 40.207 54.24C40.207 54.336 40.2123 54.4373 40.223 54.544C40.2443 54.64 40.271 54.7307 40.303 54.816C40.3457 54.8907 40.399 54.928 40.463 54.928C40.527 54.928 40.6123 54.864 40.719 54.736C40.8363 54.5973 40.959 54.4267 41.087 54.224C41.215 54.0107 41.343 53.7813 41.471 53.536C41.6097 53.28 41.7323 53.04 41.839 52.816C41.9457 52.5813 42.031 52.3733 42.095 52.192C42.1697 52.0107 42.207 51.8827 42.207 51.808C42.207 51.7547 42.2017 51.7227 42.191 51.712C42.191 51.7013 42.1857 51.696 42.175 51.696C42.1537 51.696 42.143 51.6587 42.143 51.584C42.143 51.4133 42.1963 51.2693 42.303 51.152C42.4097 51.024 42.5377 50.9227 42.687 50.848C42.847 50.7733 43.0123 50.72 43.183 50.688C43.3643 50.656 43.5243 50.64 43.663 50.64C43.823 50.64 44.0043 50.6613 44.207 50.704C44.4097 50.736 44.6017 50.8 44.783 50.896C44.9643 50.9813 45.119 51.0933 45.247 51.232C45.375 51.3707 45.439 51.536 45.439 51.728C45.439 51.9307 45.3537 52.0907 45.183 52.208C45.023 52.3147 44.8737 52.4213 44.735 52.528C44.6177 52.6133 44.5163 52.7093 44.431 52.816C44.3457 52.9227 44.255 53.024 44.159 53.12C44.031 53.248 43.839 53.4293 43.583 53.664C43.3377 53.888 43.0923 54.1333 42.847 54.4C42.6017 54.656 42.383 54.912 42.191 55.168C42.0097 55.424 41.919 55.6373 41.919 55.808C41.919 56 41.9723 56.2347 42.079 56.512C42.1963 56.7787 42.3457 57.0667 42.527 57.376C42.719 57.6747 42.927 57.984 43.151 58.304C43.3857 58.6133 43.6203 58.912 43.855 59.2C44.0897 59.4773 44.3137 59.7333 44.527 59.968C44.7403 60.192 44.9217 60.3627 45.071 60.48C45.1457 60.544 45.2257 60.608 45.311 60.672C45.407 60.7253 45.4923 60.784 45.567 60.848C45.6417 60.912 45.7057 60.9867 45.759 61.072C45.8123 61.1573 45.839 61.2587 45.839 61.376C45.839 61.5573 45.7803 61.712 45.663 61.84C45.5457 61.968 45.4017 62.0747 45.231 62.16C45.071 62.2453 44.895 62.3093 44.703 62.352C44.5217 62.3947 44.3563 62.416 44.207 62.416C44.0577 62.416 43.8977 62.3947 43.727 62.352C43.567 62.32 43.4123 62.2613 43.263 62.176C43.1243 62.1013 43.007 62 42.911 61.872C42.8257 61.744 42.783 61.5893 42.783 61.408C42.783 61.3867 42.7777 61.3493 42.767 61.296C42.767 61.232 42.6977 61.1147 42.559 60.944C42.4203 60.7627 42.2923 60.5547 42.175 60.32C42.0577 60.0747 41.9403 59.8133 41.823 59.536C41.7163 59.2587 41.599 58.976 41.471 58.688C41.343 58.3893 41.199 58.1067 41.039 57.84C41.0177 57.808 40.9857 57.7547 40.943 57.68C40.9003 57.6053 40.8523 57.568 40.799 57.568C40.6923 57.568 40.6017 57.6533 40.527 57.824C40.463 57.984 40.4097 58.1707 40.367 58.384C40.335 58.5973 40.3137 58.8053 40.303 59.008C40.2923 59.2107 40.287 59.3493 40.287 59.424ZM45.8661 48.816C45.8661 48.592 45.9088 48.3893 45.9941 48.208C46.0901 48.0267 46.2128 47.8773 46.3621 47.76C46.5115 47.6427 46.6821 47.552 46.8741 47.488C47.0768 47.424 47.2848 47.392 47.4981 47.392C47.7115 47.392 47.9141 47.424 48.1061 47.488C48.3088 47.5413 48.4848 47.6267 48.6341 47.744C48.7941 47.8613 48.9221 48.0107 49.0181 48.192C49.1141 48.3627 49.1621 48.56 49.1621 48.784C49.1621 49.0187 49.1088 49.2267 49.0021 49.408C48.9061 49.5787 48.7781 49.7227 48.6181 49.84C48.4581 49.9467 48.2768 50.032 48.0741 50.096C47.8715 50.1493 47.6635 50.176 47.4501 50.176C47.0235 50.176 46.6501 50.0693 46.3301 49.856C46.0208 49.632 45.8661 49.2853 45.8661 48.816ZM47.5141 62.16C47.3541 62.16 47.1835 62.1387 47.0021 62.096C46.8208 62.064 46.6555 62.0107 46.5061 61.936C46.3568 61.8507 46.2288 61.744 46.1221 61.616C46.0261 61.4773 45.9781 61.312 45.9781 61.12C45.9781 60.9813 46.0315 60.864 46.1381 60.768C46.2555 60.672 46.3355 60.5653 46.3781 60.448C46.4635 60.2027 46.5008 59.952 46.4901 59.696C46.4901 59.44 46.4901 59.184 46.4901 58.928C46.4901 57.968 46.4795 57.0187 46.4581 56.08C46.4475 55.1413 46.4421 54.192 46.4421 53.232C46.4421 53.0187 46.4368 52.8053 46.4261 52.592C46.4261 52.368 46.3888 52.16 46.3141 51.968C46.2608 51.84 46.1915 51.7333 46.1061 51.648C46.0208 51.552 45.9781 51.4347 45.9781 51.296C45.9781 51.1147 46.0315 50.96 46.1381 50.832C46.2555 50.6933 46.3941 50.5813 46.5541 50.496C46.7248 50.4107 46.9008 50.352 47.0821 50.32C47.2741 50.2773 47.4448 50.256 47.5941 50.256C47.7541 50.256 47.9141 50.2773 48.0741 50.32C48.2448 50.352 48.3995 50.4107 48.5381 50.496C48.6875 50.5707 48.8048 50.6773 48.8901 50.816C48.9861 50.944 49.0341 51.0987 49.0341 51.28C49.0341 51.3653 48.9968 51.4507 48.9221 51.536C48.8475 51.6213 48.8048 51.7067 48.7941 51.792C48.7515 52.304 48.6875 52.8053 48.6021 53.296C48.5275 53.776 48.4901 54.272 48.4901 54.784C48.4901 55.1893 48.4795 55.6373 48.4581 56.128C48.4368 56.6187 48.4208 57.1147 48.4101 57.616C48.3995 58.1173 48.4101 58.608 48.4421 59.088C48.4741 59.568 48.5381 60 48.6341 60.384C48.6768 60.5333 48.7515 60.656 48.8581 60.752C48.9755 60.8373 49.0341 60.9547 49.0341 61.104C49.0341 61.264 48.9808 61.4133 48.8741 61.552C48.7675 61.68 48.6341 61.792 48.4741 61.888C48.3248 61.9733 48.1595 62.0373 47.9781 62.08C47.8075 62.1333 47.6528 62.16 47.5141 62.16ZM54.6379 48.208C55.1392 48.208 55.5552 48.3467 55.8859 48.624C56.2272 48.8907 56.5045 49.248 56.7179 49.696C56.9419 50.1333 57.1125 50.6293 57.2299 51.184C57.3472 51.728 57.4325 52.2773 57.4859 52.832C57.5392 53.3867 57.5659 53.9147 57.5659 54.416C57.5765 54.9173 57.5819 55.3387 57.5819 55.68V59.824C57.5819 59.9733 57.5979 60.1013 57.6299 60.208C57.6725 60.3147 57.7099 60.4107 57.7419 60.496C57.7845 60.5813 57.8219 60.656 57.8539 60.72C57.8965 60.7733 57.9179 60.8267 57.9179 60.88C57.9179 61.0827 57.8645 61.2587 57.7579 61.408C57.6512 61.5467 57.5179 61.664 57.3579 61.76C57.1979 61.8453 57.0219 61.9093 56.8299 61.952C56.6379 61.9947 56.4565 62.016 56.2859 62.016C56.1579 62.016 56.0085 62 55.8379 61.968C55.6779 61.9253 55.5232 61.8667 55.3739 61.792C55.2352 61.7173 55.1125 61.6213 55.0059 61.504C54.9099 61.3867 54.8619 61.248 54.8619 61.088C54.8619 60.9707 54.8885 60.88 54.9419 60.816C54.9952 60.7413 55.0325 60.6453 55.0539 60.528C55.0965 60.2507 55.1179 59.968 55.1179 59.68C55.1285 59.392 55.1499 59.1093 55.1819 58.832C55.3419 57.296 55.4219 55.76 55.4219 54.224C55.4219 54.1067 55.4165 53.936 55.4059 53.712C55.4059 53.4773 55.3952 53.2213 55.3739 52.944C55.3525 52.6667 55.3205 52.3893 55.2779 52.112C55.2352 51.824 55.1765 51.5627 55.1019 51.328C55.0272 51.0933 54.9259 50.9013 54.7979 50.752C54.6805 50.6027 54.5365 50.528 54.3659 50.528C54.1312 50.528 53.9179 50.6613 53.7259 50.928C53.5445 51.1947 53.3792 51.536 53.2299 51.952C53.0912 52.3573 52.9685 52.8107 52.8619 53.312C52.7552 53.8133 52.6645 54.304 52.5899 54.784C52.5259 55.2533 52.4779 55.6853 52.4459 56.08C52.4139 56.464 52.3979 56.7467 52.3979 56.928C52.3979 57.5467 52.4245 58.16 52.4779 58.768C52.5312 59.376 52.5845 59.9893 52.6379 60.608C52.6485 60.672 52.6805 60.7413 52.7339 60.816C52.7979 60.8907 52.8299 60.9653 52.8299 61.04C52.8299 61.2427 52.7765 61.4187 52.6699 61.568C52.5632 61.7067 52.4299 61.824 52.2699 61.92C52.1099 62.0053 51.9339 62.0693 51.7419 62.112C51.5499 62.1547 51.3685 62.176 51.1979 62.176C51.0699 62.176 50.9205 62.1547 50.7499 62.112C50.5899 62.08 50.4352 62.0267 50.2859 61.952C50.1472 61.8773 50.0245 61.7813 49.9179 61.664C49.8219 61.5467 49.7739 61.408 49.7739 61.248C49.7739 61.12 49.8059 61.0187 49.8699 60.944C49.9445 60.8587 49.9925 60.752 50.0139 60.624C50.0992 60.0053 50.1259 59.3867 50.0939 58.768C50.0725 58.1493 50.0619 57.5253 50.0619 56.896C50.0619 55.7867 50.0565 54.6827 50.0459 53.584C50.0352 52.4747 49.9552 51.3707 49.8059 50.272C49.7952 50.1867 49.7525 50.1173 49.6779 50.064C49.6139 50 49.5445 49.9413 49.4699 49.888C49.3952 49.8347 49.3259 49.776 49.2619 49.712C49.1979 49.648 49.1659 49.5733 49.1659 49.488C49.1659 49.264 49.2299 49.0773 49.3579 48.928C49.4752 48.7787 49.6245 48.6613 49.8059 48.576C49.9979 48.48 50.2005 48.416 50.4139 48.384C50.6272 48.3413 50.8192 48.32 50.9899 48.32C51.3419 48.32 51.6352 48.432 51.8699 48.656C52.1152 48.8693 52.2379 49.1573 52.2379 49.52C52.2379 49.6587 52.2272 49.84 52.2059 50.064C52.1845 50.288 52.1632 50.5067 52.1419 50.72C52.1205 50.9227 52.1045 51.0987 52.0939 51.248C52.0939 51.3973 52.1045 51.472 52.1259 51.472C52.1579 51.472 52.2219 51.328 52.3179 51.04C52.3712 50.88 52.4405 50.6453 52.5259 50.336C52.6219 50.016 52.7552 49.7013 52.9259 49.392C53.0965 49.072 53.3205 48.7947 53.5979 48.56C53.8752 48.3253 54.2219 48.208 54.6379 48.208ZM64.4621 59.856C64.4621 59.632 64.3661 59.4347 64.1741 59.264C63.9821 59.0933 63.7421 58.9387 63.4541 58.8C63.1768 58.6507 62.8675 58.512 62.5261 58.384C62.1955 58.256 61.8861 58.112 61.5981 57.952C61.3208 57.792 61.0861 57.616 60.8941 57.424C60.7021 57.2213 60.6061 56.9867 60.6061 56.72C60.6061 56.592 60.6381 56.464 60.7021 56.336C60.7661 56.1973 60.8355 56.0747 60.9101 55.968C60.9848 55.8507 61.0541 55.7493 61.1181 55.664C61.1821 55.568 61.2141 55.4933 61.2141 55.44C61.2141 55.408 61.1981 55.3867 61.1661 55.376C60.8568 55.216 60.5475 55.056 60.2381 54.896C59.9288 54.7253 59.6515 54.5333 59.4061 54.32C59.1608 54.096 58.9581 53.84 58.7981 53.552C58.6488 53.2533 58.5741 52.9013 58.5741 52.496C58.5741 51.8987 58.6648 51.3387 58.8461 50.816C59.0381 50.2933 59.3048 49.8347 59.6461 49.44C59.9875 49.0453 60.4035 48.736 60.8941 48.512C61.3955 48.2773 61.9555 48.16 62.5741 48.16C62.7555 48.16 62.9208 48.192 63.0701 48.256C63.2301 48.32 63.4008 48.352 63.5821 48.352C63.7741 48.352 63.9235 48.2987 64.0301 48.192C64.1475 48.0853 64.2541 47.968 64.3501 47.84C64.4461 47.7013 64.5528 47.5787 64.6701 47.472C64.7981 47.3653 64.9741 47.312 65.1981 47.312C65.5395 47.312 65.8275 47.392 66.0621 47.552C66.2968 47.712 66.4141 47.9787 66.4141 48.352C66.4141 48.608 66.3501 48.7947 66.2221 48.912C66.1048 49.0187 65.9661 49.0987 65.8061 49.152C65.6568 49.2053 65.5128 49.2427 65.3741 49.264C65.2355 49.2853 65.1501 49.3387 65.1181 49.424C65.0861 49.4987 65.1181 49.616 65.2141 49.776C65.3101 49.936 65.4221 50.1387 65.5501 50.384C65.6888 50.6187 65.8115 50.896 65.9181 51.216C66.0355 51.536 66.0941 51.8987 66.0941 52.304C66.0941 52.752 66.0568 53.1253 65.9821 53.424C65.9075 53.7227 65.7848 53.984 65.6141 54.208C65.4541 54.432 65.2408 54.6293 64.9741 54.8C64.7075 54.9707 64.3821 55.1467 63.9981 55.328C63.9235 55.36 63.8115 55.408 63.6621 55.472C63.5128 55.536 63.3635 55.6053 63.2141 55.68C63.0648 55.7547 62.9315 55.84 62.8141 55.936C62.7075 56.032 62.6541 56.128 62.6541 56.224C62.6541 56.3307 62.6861 56.4213 62.7501 56.496C62.8141 56.56 62.8888 56.6133 62.9741 56.656C63.0701 56.688 63.1715 56.7147 63.2781 56.736C63.3848 56.7467 63.4808 56.7573 63.5661 56.768C64.0035 56.8107 64.4035 56.912 64.7661 57.072C65.1288 57.232 65.4381 57.44 65.6941 57.696C65.9608 57.952 66.1635 58.2613 66.3021 58.624C66.4515 58.9867 66.5261 59.3973 66.5261 59.856C66.5261 60.4533 66.4088 60.9387 66.1741 61.312C65.9501 61.6747 65.6515 61.952 65.2781 62.144C64.9048 62.3467 64.4835 62.48 64.0141 62.544C63.5448 62.6187 63.0648 62.656 62.5741 62.656C62.0835 62.656 61.5981 62.6133 61.1181 62.528C60.6381 62.4427 60.2061 62.2933 59.8221 62.08C59.4488 61.8667 59.1448 61.5733 58.9101 61.2C58.6755 60.816 58.5581 60.3307 58.5581 59.744C58.5581 59.5307 58.6008 59.328 58.6861 59.136C58.7821 58.944 58.8835 58.752 58.9901 58.56C59.0115 58.5067 59.0061 58.4533 58.9741 58.4C58.9421 58.336 58.9261 58.2773 58.9261 58.224C58.9261 57.9467 59.0275 57.744 59.2301 57.616C59.4435 57.488 59.6728 57.424 59.9181 57.424C60.1101 57.424 60.3128 57.4667 60.5261 57.552C60.7501 57.6267 60.9581 57.7333 61.1501 57.872C61.3421 58 61.5021 58.16 61.6301 58.352C61.7581 58.5333 61.8221 58.7307 61.8221 58.944C61.8221 59.2213 61.7155 59.4293 61.5021 59.568C61.2995 59.7067 61.0755 59.76 60.8301 59.728L60.7021 59.712C60.6595 59.7013 60.6328 59.728 60.6221 59.792C60.6115 59.856 60.6061 59.9093 60.6061 59.952C60.6061 60.176 60.6648 60.368 60.7821 60.528C60.8995 60.6773 61.0435 60.8 61.2141 60.896C61.3955 60.992 61.5875 61.0613 61.7901 61.104C62.0035 61.136 62.2008 61.152 62.3821 61.152C62.5635 61.152 62.7715 61.1307 63.0061 61.088C63.2515 61.0347 63.4808 60.9547 63.6941 60.848C63.9075 60.7413 64.0888 60.608 64.2381 60.448C64.3875 60.288 64.4621 60.0907 64.4621 59.856ZM60.8301 52.448C60.8301 53.056 60.9955 53.472 61.3261 53.696C61.6568 53.92 62.1048 54.032 62.6701 54.032C62.9475 54.032 63.1715 53.9893 63.3421 53.904C63.5235 53.8187 63.6675 53.7013 63.7741 53.552C63.8808 53.392 63.9501 53.2107 63.9821 53.008C64.0248 52.7947 64.0461 52.5707 64.0461 52.336C64.0461 52.1227 64.0195 51.8667 63.9661 51.568C63.9235 51.2693 63.8435 50.9813 63.7261 50.704C63.6088 50.4267 63.4595 50.192 63.2781 50C63.0968 49.7973 62.8675 49.696 62.5901 49.696C62.2701 49.696 61.9981 49.792 61.7741 49.984C61.5608 50.176 61.3795 50.416 61.2301 50.704C61.0915 50.9813 60.9901 51.28 60.9261 51.6C60.8621 51.9093 60.8301 52.192 60.8301 52.448Z" fill="white"/>
<path d="M46.1584 4.664C47.5624 7.04 46.8064 8.912 45.4024 9.992C43.6024 11.36 40.7224 11.468 39.8224 9.812C39.8224 9.812 42.2704 9.812 42.2704 7.508C42.2704 5.06 39.8584 4.88 36.3304 5.708C33.3784 6.392 29.7064 7.544 25.9984 8.696C26.6824 8.84 27.3304 9.308 27.9064 10.172C24.4504 11.468 20.5624 18.308 18.3664 24.14C15.9544 30.512 14.2984 38.54 16.9264 40.376C15.7024 42.356 11.7784 42.392 10.8064 39.692C9.51044 36.308 10.7344 30.368 13.0744 24.608C15.6304 18.38 19.4464 12.044 22.8304 9.632C20.0224 10.46 17.3584 11.18 15.1624 11.612C6.48644 13.196 2.49044 11.18 1.33844 8.48C0.186437 5.852 1.69844 2.612 4.14644 1.424C4.14644 1.424 2.67044 6.104 9.43844 6.464C19.3744 6.968 28.8424 3.692 34.6744 2.216C40.6144 0.704 44.8264 2.396 46.1584 4.664ZM34.1218 30.584C34.1218 30.584 34.3018 30.584 34.3018 31.124C34.3018 35.192 30.8818 38.648 28.7578 37.784C27.6778 37.352 26.8138 35.876 27.0298 32.96C26.0218 37.388 22.3498 38.504 20.6578 37.82C19.0018 37.136 17.3458 35.192 19.2898 29.54C21.8458 22.16 26.7418 20.72 28.2538 20.72C29.8018 20.72 31.2778 21.764 31.2778 23.492C31.2778 24.644 31.0618 25.328 30.7018 26.084C31.0618 26.012 31.4938 26.012 31.9258 26.12C33.1498 26.444 33.1498 27.236 33.1498 27.236C33.1498 27.236 31.4218 27.956 30.5578 30.044C29.9458 31.484 29.8378 32.636 31.0978 32.888C32.6098 33.212 34.1218 30.584 34.1218 30.584ZM24.2218 32.852C25.4818 32.852 26.5978 31.52 27.2818 30.512C27.6778 29.612 28.1098 28.82 28.4338 28.244C27.5338 28.496 26.8138 28.1 27.0298 27.596C27.0298 27.596 30.2338 24.752 27.6778 23.636C26.3818 23.06 24.5098 25.328 23.4658 27.02C22.2778 29.036 21.8458 32.852 24.2218 32.852ZM47.1085 26.768C46.7125 33.392 40.0165 32.492 41.7445 28.136C42.1045 27.128 42.7525 25.976 43.2565 24.86C43.7245 23.816 43.6885 23.384 43.3285 23.348C42.6085 23.312 40.6645 25.148 39.8005 27.128V27.164C39.8005 27.164 38.7565 29.324 37.5685 31.7C36.4165 34.04 35.4445 36.56 35.6245 38C35.6245 38 33.9685 38.432 32.7085 36.74C31.8805 35.624 32.4205 34.004 33.4645 31.664C34.6165 29 37.5685 23.312 37.5685 22.304C37.6045 21.692 37.4605 21.296 37.3525 21.044C37.2445 20.828 37.3525 20.612 37.5685 20.612C38.3605 20.576 39.8005 20.612 40.3405 21.404C40.7365 21.944 40.8445 22.592 40.8805 23.204C41.6725 22.232 43.1485 20.864 44.8765 20.9C47.6845 20.972 47.4685 22.844 46.6405 24.212C46.0285 25.22 45.5965 26.084 45.3085 26.732C45.0565 27.38 45.0205 27.776 45.1285 27.92C45.3085 28.172 46.1005 28.46 47.1085 26.768ZM59.9355 27.884C60.0075 27.776 60.1515 27.848 60.1515 27.956C59.5755 31.124 58.6395 33.032 56.2275 32.744C54.5355 35.624 51.5835 39.08 48.4155 37.64C45.5715 36.344 45.1755 32.06 46.3995 28.748C48.0555 24.248 51.6555 22.556 52.9155 22.088C57.8835 17.48 61.1235 23.708 57.7035 29.972C58.7115 30.188 59.1435 29.144 59.9355 27.884ZM55.5075 23.312C53.5995 23.852 53.6715 27.056 55.1835 28.64C56.8395 25.688 56.8035 22.952 55.5075 23.312ZM53.5995 31.556C52.2315 30.476 51.5115 27.2 51.6555 25.508C49.8195 26.156 47.8395 31.412 50.2515 32.924C51.2955 33.572 52.8075 32.636 53.5995 31.556ZM76.0846 18.56C76.0486 18.632 74.8246 17.408 72.1606 17.264C70.7926 17.192 68.7046 17.66 67.4086 18.2C66.3286 20.612 65.5006 22.628 64.8166 24.32C62.5846 30.008 62.5486 32.024 64.4206 32.708C66.2926 33.356 67.5166 31.484 68.6326 29.36C68.6326 29.36 69.1006 30.728 68.5246 32.24C66.8686 36.452 63.3766 38.432 60.8566 38.072C58.5886 37.748 57.1126 35.552 58.3366 31.484C58.6966 30.26 59.7766 27.236 60.9286 24.284C61.6846 22.376 62.4766 20.36 63.0526 19.028C60.8566 19.424 58.6246 19.424 56.5726 18.956C53.0806 18.128 51.7486 15.896 52.0726 14.024C52.5046 11.396 54.3046 11.612 54.3046 11.612C53.0806 15.5 60.9646 17.012 64.0966 16.508C65.1406 14.096 65.2846 12.728 64.8166 11.864C64.7446 11.72 64.9246 11.576 65.0686 11.576C67.9846 11.396 68.6686 13.556 68.2366 15.644C72.6286 14.852 77.6686 15.5 76.0846 18.56Z" fill="white"/>
</svg>
