<svg width="200" height="200" viewBox="0 0 200 200" fill="none" xmlns="http://www.w3.org/2000/svg">
<path d="M79.15 48.275C90.9834 32.4083 108.775 27.775 125.142 32.2333C142.808 37.0417 158.342 52.2167 163.5 73.35C163.767 74.4333 163.997 75.5167 164.192 76.6C156.745 73.9466 148.646 73.7423 141.075 76.0167C130.35 68.0833 117.067 66.75 105.258 71.1C90.4667 76.5583 78.9167 90.4 76.2417 107.817C72.825 130.117 86.4084 150.15 105.617 167.183L108.85 169.983C106.242 170.167 103.592 169.758 101.058 169.217C99.7566 168.937 98.4618 168.625 97.175 168.283L92.7 167.033C52.9167 155.842 26.2834 138.333 18.6417 112.167C12.5417 91.2833 18.4084 70.375 31.3084 57.375C43.2584 45.3333 60.975 40.45 79.15 48.275ZM92.7167 110.342C96.2834 87.075 123.192 75.6083 137.008 95.575C137.141 95.7606 137.341 95.8865 137.566 95.9255C137.79 95.9645 138.021 95.9134 138.208 95.7833C158.017 81.75 179.375 101.725 174.767 124.808C172.1 138.197 159.683 149.308 137.517 158.142L133.892 159.558L131.7 160.458C129.808 161.2 127.808 161.792 126 161.475C124.2 161.158 122.525 159.908 121 158.575L118.417 156.242C99.1389 139.653 90.5723 124.353 92.7167 110.342Z" fill="#D948BF"/>
</svg>
