<svg width="30" height="30" viewBox="0 0 30 30" fill="none" xmlns="http://www.w3.org/2000/svg">
<path d="M15 3C13.4087 3 11.8826 3.63214 10.7574 4.75736C9.63214 5.88258 9 7.4087 9 9C9 10.5913 9.63214 12.1174 10.7574 13.2426C11.8826 14.3679 13.4087 15 15 15C16.5913 15 18.1174 14.3679 19.2426 13.2426C20.3679 12.1174 21 10.5913 21 9C21 7.4087 20.3679 5.88258 19.2426 4.75736C18.1174 3.63214 16.5913 3 15 3ZM10.5 9C10.5 7.80653 10.9741 6.66193 11.818 5.81802C12.6619 4.97411 13.8065 4.5 15 4.5C16.1935 4.5 17.3381 4.97411 18.182 5.81802C19.0259 6.66193 19.5 7.80653 19.5 9C19.5 10.1935 19.0259 11.3381 18.182 12.182C17.3381 13.0259 16.1935 13.5 15 13.5C13.8065 13.5 12.6619 13.0259 11.818 12.182C10.9741 11.3381 10.5 10.1935 10.5 9ZM7.5135 16.5C7.1184 16.4982 6.72684 16.5745 6.3613 16.7245C5.99577 16.8744 5.66345 17.0951 5.38345 17.3739C5.10344 17.6526 4.88125 17.984 4.72965 18.3488C4.57804 18.7137 4.5 19.1049 4.5 19.5C4.5 22.0365 5.7495 23.949 7.7025 25.1955C9.6255 26.421 12.2175 27 15 27C17.7825 27 20.3745 26.421 22.2975 25.1955C24.2505 23.9505 25.5 22.035 25.5 19.5C25.5 18.7044 25.1839 17.9413 24.6213 17.3787C24.0587 16.8161 23.2956 16.5 22.5 16.5H7.5135ZM6 19.5C6 18.6705 6.672 18 7.5135 18H22.5C22.8978 18 23.2794 18.158 23.5607 18.4393C23.842 18.7206 24 19.1022 24 19.5C24 21.4635 23.067 22.926 21.4905 23.9295C19.8855 24.954 17.6025 25.5 15 25.5C12.3975 25.5 10.1145 24.954 8.5095 23.9295C6.9345 22.9245 6 21.465 6 19.5Z" fill="#777777"/>
</svg>
