<svg width="40" height="40" viewBox="0 0 40 40" fill="none" xmlns="http://www.w3.org/2000/svg">
<path d="M10.001 34.0155L10.0013 34.0157C12.671 35.717 16.2302 36.5 20 36.5C23.7698 36.5 27.329 35.717 29.9987 34.0157L29.9988 34.0156C32.7286 32.2754 34.5 29.5713 34.5 26C34.5 24.8065 34.0259 23.6619 33.182 22.818C32.3381 21.9741 31.1935 21.5 30 21.5H10.0189C9.42673 21.4975 8.83986 21.6119 8.29196 21.8367C7.74365 22.0617 7.24518 22.3927 6.82517 22.8108C6.40516 23.229 6.07188 23.726 5.84447 24.2732C5.61706 24.8205 5.49999 25.4073 5.5 26C5.5 29.5735 7.27155 32.2734 10.001 34.0155ZM28.3855 31.4842L28.385 31.4845C26.3508 32.783 23.4102 33.5 20 33.5C16.5898 33.5 13.6492 32.783 11.615 31.4845L11.615 31.4845C9.64064 30.2247 8.5 28.4287 8.5 26C8.5 25.1734 9.16889 24.5 10.018 24.5H30C30.3978 24.5 30.7794 24.658 31.0607 24.9393C31.342 25.2206 31.5 25.6022 31.5 26C31.5 28.4272 30.3609 30.2268 28.3855 31.4842ZM20 3.5C17.7457 3.5 15.5837 4.39553 13.9896 5.98959C12.3955 7.58365 11.5 9.74566 11.5 12C11.5 14.2543 12.3955 16.4163 13.9896 18.0104C15.5837 19.6045 17.7457 20.5 20 20.5C22.2543 20.5 24.4163 19.6045 26.0104 18.0104C27.6045 16.4163 28.5 14.2543 28.5 12C28.5 9.74566 27.6045 7.58365 26.0104 5.98959C24.4163 4.39553 22.2543 3.5 20 3.5ZM14.5 12C14.5 10.5413 15.0795 9.14236 16.1109 8.11091C17.1424 7.07946 18.5413 6.5 20 6.5C21.4587 6.5 22.8576 7.07946 23.8891 8.11091C24.9205 9.14236 25.5 10.5413 25.5 12C25.5 13.4587 24.9205 14.8576 23.8891 15.8891C22.8576 16.9205 21.4587 17.5 20 17.5C18.5413 17.5 17.1424 16.9205 16.1109 15.8891C15.0795 14.8576 14.5 13.4587 14.5 12Z" fill="white" stroke="white"/>
</svg>
