<svg width="40" height="40" viewBox="0 0 40 40" fill="none" xmlns="http://www.w3.org/2000/svg">
<path fill-rule="evenodd" clip-rule="evenodd" d="M18.125 5.6248C18.4702 5.6248 18.75 5.90461 18.75 6.2498V18.1248C18.75 18.47 18.4702 18.7498 18.125 18.7498H6.25C5.9048 18.7498 5.625 18.47 5.625 18.1248V6.2498C5.625 5.90461 5.9048 5.6248 6.25 5.6248H18.125ZM16.0938 8.28105H8.28125V16.0936H16.0938V8.28105ZM35.3646 11.7063C35.6086 11.9504 35.6086 12.3461 35.3646 12.5902L28.2935 19.6613C28.0494 19.9053 27.6537 19.9053 27.4096 19.6613L20.3386 12.5902C20.0945 12.3461 20.0945 11.9504 20.3386 11.7063L27.4096 4.6352C27.6537 4.39113 28.0494 4.39113 28.2935 4.6352L35.3646 11.7063ZM32.05 12.1482L27.8516 7.9498L23.6531 12.1482L27.8516 16.3467L32.05 12.1482ZM18.125 21.2498C18.4702 21.2498 18.75 21.5296 18.75 21.8748V33.7498C18.75 34.095 18.4702 34.3748 18.125 34.3748H6.25C5.9048 34.3748 5.625 34.095 5.625 33.7498V21.8748C5.625 21.5296 5.9048 21.2498 6.25 21.2498H18.125ZM16.0938 23.9061H8.28125V31.7186H16.0938V23.9061ZM33.75 21.2498C34.0952 21.2498 34.375 21.5296 34.375 21.8748V33.7498C34.375 34.095 34.0952 34.3748 33.75 34.3748H21.875C21.5298 34.3748 21.25 34.095 21.25 33.7498V21.8748C21.25 21.5296 21.5298 21.2498 21.875 21.2498H33.75ZM31.7188 23.9061H23.9062V31.7186H31.7188V23.9061Z" fill="white"/>
</svg>
