<svg width="200" height="200" viewBox="0 0 200 200" fill="none" xmlns="http://www.w3.org/2000/svg">
<path d="M91.6668 41.6667H150M83.3334 83.3333L120.833 120.833M41.6667 91.6667V150" stroke="#D948BF" stroke-width="8" stroke-linecap="round" stroke-linejoin="round"/>
<path d="M53.7001 90.7333C74.153 90.7333 90.7334 74.153 90.7334 53.7C90.7334 33.2471 74.153 16.6667 53.7001 16.6667C33.2471 16.6667 16.6667 33.2471 16.6667 53.7C16.6667 74.153 33.2471 90.7333 53.7001 90.7333Z" stroke="#D948BF" stroke-width="8" stroke-linecap="round" stroke-linejoin="round"/>
<path d="M41.6667 183.333C50.8714 183.333 58.3333 175.871 58.3333 166.667C58.3333 157.462 50.8714 150 41.6667 150C32.4619 150 25 157.462 25 166.667C25 175.871 32.4619 183.333 41.6667 183.333Z" stroke="#D948BF" stroke-width="8" stroke-linecap="round" stroke-linejoin="round"/>
<path d="M133.333 150C142.538 150 150 142.538 150 133.333C150 124.129 142.538 116.667 133.333 116.667C124.129 116.667 116.667 124.129 116.667 133.333C116.667 142.538 124.129 150 133.333 150Z" stroke="#D948BF" stroke-width="8" stroke-linecap="round" stroke-linejoin="round"/>
<path d="M166.667 58.3333C175.871 58.3333 183.333 50.8714 183.333 41.6667C183.333 32.4619 175.871 25 166.667 25C157.462 25 150 32.4619 150 41.6667C150 50.8714 157.462 58.3333 166.667 58.3333Z" stroke="#D948BF" stroke-width="8" stroke-linecap="round" stroke-linejoin="round"/>
</svg>
