<svg width="40" height="40" viewBox="0 0 40 40" fill="none" xmlns="http://www.w3.org/2000/svg">
<path d="M20 23.3335C20.3296 23.3335 20.6518 23.2357 20.9259 23.0526C21.2 22.8695 21.4136 22.6092 21.5398 22.3046C21.6659 22.0001 21.6989 21.665 21.6346 21.3417C21.5703 21.0184 21.4116 20.7214 21.1785 20.4883C20.9454 20.2552 20.6484 20.0965 20.3251 20.0322C20.0018 19.9679 19.6667 20.0009 19.3622 20.127C19.0576 20.2532 18.7973 20.4668 18.6142 20.7409C18.4311 21.015 18.3333 21.3372 18.3333 21.6668C18.3333 22.1089 18.5089 22.5328 18.8215 22.8453C19.134 23.1579 19.558 23.3335 20 23.3335ZM28.3333 23.3335C28.6629 23.3335 28.9852 23.2357 29.2593 23.0526C29.5333 22.8695 29.747 22.6092 29.8731 22.3046C29.9993 22.0001 30.0323 21.665 29.968 21.3417C29.9036 21.0184 29.7449 20.7214 29.5118 20.4883C29.2787 20.2552 28.9818 20.0965 28.6585 20.0322C28.3352 19.9679 28.0001 20.0009 27.6955 20.127C27.391 20.2532 27.1307 20.4668 26.9475 20.7409C26.7644 21.015 26.6666 21.3372 26.6666 21.6668C26.6666 22.1089 26.8422 22.5328 27.1548 22.8453C27.4674 23.1579 27.8913 23.3335 28.3333 23.3335ZM20 30.0002C20.3296 30.0002 20.6518 29.9024 20.9259 29.7193C21.2 29.5361 21.4136 29.2758 21.5398 28.9713C21.6659 28.6668 21.6989 28.3316 21.6346 28.0083C21.5703 27.685 21.4116 27.3881 21.1785 27.155C20.9454 26.9219 20.6484 26.7632 20.3251 26.6989C20.0018 26.6345 19.6667 26.6676 19.3622 26.7937C19.0576 26.9198 18.7973 27.1335 18.6142 27.4075C18.4311 27.6816 18.3333 28.0039 18.3333 28.3335C18.3333 28.7755 18.5089 29.1994 18.8215 29.512C19.134 29.8246 19.558 30.0002 20 30.0002ZM28.3333 30.0002C28.6629 30.0002 28.9852 29.9024 29.2593 29.7193C29.5333 29.5361 29.747 29.2758 29.8731 28.9713C29.9993 28.6668 30.0323 28.3316 29.968 28.0083C29.9036 27.685 29.7449 27.3881 29.5118 27.155C29.2787 26.9219 28.9818 26.7632 28.6585 26.6989C28.3352 26.6345 28.0001 26.6676 27.6955 26.7937C27.391 26.9198 27.1307 27.1335 26.9475 27.4075C26.7644 27.6816 26.6666 28.0039 26.6666 28.3335C26.6666 28.7755 26.8422 29.1994 27.1548 29.512C27.4674 29.8246 27.8913 30.0002 28.3333 30.0002ZM11.6666 23.3335C11.9963 23.3335 12.3185 23.2357 12.5926 23.0526C12.8667 22.8695 13.0803 22.6092 13.2064 22.3046C13.3326 22.0001 13.3656 21.665 13.3013 21.3417C13.237 21.0184 13.0782 20.7214 12.8452 20.4883C12.6121 20.2552 12.3151 20.0965 11.9918 20.0322C11.6685 19.9679 11.3334 20.0009 11.0288 20.127C10.7243 20.2532 10.464 20.4668 10.2809 20.7409C10.0977 21.015 9.99998 21.3372 9.99998 21.6668C9.99998 22.1089 10.1756 22.5328 10.4881 22.8453C10.8007 23.1579 11.2246 23.3335 11.6666 23.3335ZM31.6666 6.66683H30V5.00016C30 4.55814 29.8244 4.13421 29.5118 3.82165C29.1993 3.50909 28.7753 3.3335 28.3333 3.3335C27.8913 3.3335 27.4674 3.50909 27.1548 3.82165C26.8422 4.13421 26.6666 4.55814 26.6666 5.00016V6.66683H13.3333V5.00016C13.3333 4.55814 13.1577 4.13421 12.8452 3.82165C12.5326 3.50909 12.1087 3.3335 11.6666 3.3335C11.2246 3.3335 10.8007 3.50909 10.4881 3.82165C10.1756 4.13421 9.99998 4.55814 9.99998 5.00016V6.66683H8.33331C7.00723 6.66683 5.73546 7.19361 4.79778 8.1313C3.8601 9.06898 3.33331 10.3407 3.33331 11.6668V31.6668C3.33331 32.9929 3.8601 34.2647 4.79778 35.2024C5.73546 36.14 7.00723 36.6668 8.33331 36.6668H31.6666C32.9927 36.6668 34.2645 36.14 35.2022 35.2024C36.1399 34.2647 36.6666 32.9929 36.6666 31.6668V11.6668C36.6666 10.3407 36.1399 9.06898 35.2022 8.1313C34.2645 7.19361 32.9927 6.66683 31.6666 6.66683ZM33.3333 31.6668C33.3333 32.1089 33.1577 32.5328 32.8452 32.8453C32.5326 33.1579 32.1087 33.3335 31.6666 33.3335H8.33331C7.89129 33.3335 7.46736 33.1579 7.1548 32.8453C6.84224 32.5328 6.66665 32.1089 6.66665 31.6668V16.6668H33.3333V31.6668ZM33.3333 13.3335H6.66665V11.6668C6.66665 11.2248 6.84224 10.8009 7.1548 10.4883C7.46736 10.1758 7.89129 10.0002 8.33331 10.0002H31.6666C32.1087 10.0002 32.5326 10.1758 32.8452 10.4883C33.1577 10.8009 33.3333 11.2248 33.3333 11.6668V13.3335ZM11.6666 30.0002C11.9963 30.0002 12.3185 29.9024 12.5926 29.7193C12.8667 29.5361 13.0803 29.2758 13.2064 28.9713C13.3326 28.6668 13.3656 28.3316 13.3013 28.0083C13.237 27.685 13.0782 27.3881 12.8452 27.155C12.6121 26.9219 12.3151 26.7632 11.9918 26.6989C11.6685 26.6345 11.3334 26.6676 11.0288 26.7937C10.7243 26.9198 10.464 27.1335 10.2809 27.4075C10.0977 27.6816 9.99998 28.0039 9.99998 28.3335C9.99998 28.7755 10.1756 29.1994 10.4881 29.512C10.8007 29.8246 11.2246 30.0002 11.6666 30.0002Z" fill="white"/>
</svg>
