<svg width="32" height="32" viewBox="0 0 32 32" fill="none" xmlns="http://www.w3.org/2000/svg">
<path d="M20.6667 18.6667H19.6134L19.24 18.3067C20.0733 17.3386 20.6823 16.1984 21.0234 14.9675C21.3646 13.7366 21.4294 12.4455 21.2134 11.1867C20.5867 7.48 17.4934 4.52 13.76 4.06666C12.4475 3.90062 11.1144 4.03703 9.86273 4.46545C8.61104 4.89387 7.47395 5.60296 6.53847 6.53844C5.60299 7.47392 4.8939 8.61101 4.46548 9.8627C4.03706 11.1144 3.90065 12.4475 4.06669 13.76C4.52003 17.4933 7.48003 20.5867 11.1867 21.2133C12.4456 21.4294 13.7366 21.3645 14.9675 21.0234C16.1984 20.6823 17.3386 20.0733 18.3067 19.24L18.6667 19.6133V20.6667L24.3334 26.3333C24.88 26.88 25.7734 26.88 26.32 26.3333C26.8667 25.7867 26.8667 24.8933 26.32 24.3467L20.6667 18.6667ZM12.6667 18.6667C9.34669 18.6667 6.66669 15.9867 6.66669 12.6667C6.66669 9.34666 9.34669 6.66666 12.6667 6.66666C15.9867 6.66666 18.6667 9.34666 18.6667 12.6667C18.6667 15.9867 15.9867 18.6667 12.6667 18.6667Z" fill="#777777"/>
</svg>
