<svg width="48" height="48" viewBox="0 0 48 48" fill="none" xmlns="http://www.w3.org/2000/svg">
<g clip-path="url(#clip0_67_617)">
<mask id="mask0_67_617" style="mask-type:alpha" maskUnits="userSpaceOnUse" x="-1" y="4" width="25" height="44">
<rect width="24" height="44" transform="translate(-0.000488281 4)" fill="#EBBC00"/>
</mask>
<g mask="url(#mask0_67_617)">
<path fill-rule="evenodd" clip-rule="evenodd" d="M21.84 5.7359C22.0601 5.35822 22.3753 5.04485 22.7543 4.82705C23.1333 4.60925 23.5628 4.49463 24 4.49463C24.4371 4.49463 24.8666 4.60925 25.2456 4.82705C25.6246 5.04485 25.9399 5.35822 26.16 5.7359L31.75 15.3319L42.606 17.6839C43.033 17.7767 43.4282 17.9798 43.7523 18.273C44.0764 18.5661 44.3179 18.9391 44.4529 19.3547C44.5878 19.7704 44.6115 20.2141 44.5215 20.6417C44.4315 21.0694 44.231 21.4659 43.94 21.7919L36.54 30.0739L37.66 41.1239C37.7042 41.559 37.6334 41.9981 37.4548 42.3973C37.2762 42.7966 36.996 43.1419 36.6422 43.399C36.2884 43.6561 35.8733 43.8158 35.4385 43.8623C35.0036 43.9088 34.5641 43.8404 34.164 43.6639L24 39.1839L13.836 43.6639C13.4358 43.8404 12.9964 43.9088 12.5615 43.8623C12.1266 43.8158 11.7115 43.6561 11.3577 43.399C11.0039 43.1419 10.7237 42.7966 10.5451 42.3973C10.3665 41.9981 10.2958 41.559 10.34 41.1239L11.46 30.0739L4.05997 21.7939C3.76843 21.468 3.56748 21.0712 3.4772 20.6433C3.38691 20.2154 3.41045 19.7714 3.54546 19.3554C3.68046 18.9395 3.92222 18.5662 4.24658 18.2729C4.57095 17.9796 4.96658 17.7765 5.39397 17.6839L16.25 15.3319L21.84 5.7359Z" fill="#EBBC00"/>
</g>
<path fill-rule="evenodd" clip-rule="evenodd" d="M21.4166 5.24127C21.6367 4.86359 21.952 4.55022 22.331 4.33242C22.71 4.11462 23.1395 4 23.5766 4C24.0138 4 24.4433 4.11462 24.8223 4.33242C25.2013 4.55022 25.5165 4.86359 25.7366 5.24127L31.3266 14.8373L42.1826 17.1893C42.6097 17.2821 43.0049 17.4852 43.329 17.7783C43.653 18.0715 43.8946 18.4445 44.0295 18.8601C44.1645 19.2757 44.1882 19.7195 44.0982 20.1471C44.0082 20.5747 43.8077 20.9713 43.5166 21.2973L36.1166 29.5793L37.2366 40.6293C37.2808 41.0644 37.2101 41.5035 37.0315 41.9027C36.8529 42.3019 36.5727 42.6473 36.2189 42.9044C35.8651 43.1614 35.45 43.3212 35.0151 43.3677C34.5802 43.4142 34.1408 43.3458 33.7406 43.1693L23.5766 38.6893L13.4126 43.1693C13.0125 43.3458 12.573 43.4142 12.1381 43.3677C11.7033 43.3212 11.2882 43.1614 10.9344 42.9044C10.5806 42.6473 10.3004 42.3019 10.1218 41.9027C9.94318 41.5035 9.87245 41.0644 9.91663 40.6293L11.0366 29.5793L3.63663 21.2993C3.34509 20.9733 3.14414 20.5766 3.05386 20.1487C2.96357 19.7208 2.98711 19.2767 3.12212 18.8608C3.25712 18.4448 3.49888 18.0716 3.82324 17.7783C4.14761 17.485 4.54324 17.2819 4.97063 17.1893L15.8266 14.8373L21.4166 5.24127ZM23.5766 9.47927L18.9506 17.4233C18.7757 17.7231 18.5403 17.9832 18.2593 18.1871C17.9783 18.3909 17.658 18.534 17.3186 18.6073L8.33463 20.5533L14.4586 27.4073C14.9266 27.9313 15.1526 28.6273 15.0826 29.3253L14.1566 38.4713L22.5686 34.7633C22.8863 34.6233 23.2295 34.5511 23.5766 34.5511C23.9237 34.5511 24.267 34.6233 24.5846 34.7633L32.9966 38.4713L32.0706 29.3253C32.0355 28.9799 32.0726 28.631 32.1797 28.3008C32.2868 27.9706 32.4615 27.6663 32.6926 27.4073L38.8186 20.5533L29.8346 18.6073C29.4953 18.534 29.175 18.3909 28.894 18.1871C28.613 17.9832 28.3775 17.7231 28.2026 17.4233L23.5766 9.47927Z" fill="#EBBC00"/>
</g>
<defs>
<clipPath id="clip0_67_617">
<rect width="48" height="48" fill="white"/>
</clipPath>
</defs>
</svg>
