<svg width="86" height="60" viewBox="0 0 86 60" fill="none" xmlns="http://www.w3.org/2000/svg">
<g clip-path="url(#clip0_213_452)">
<path d="M84.2141 9.3692C83.2314 5.68113 80.3362 2.77694 76.6592 1.79129C69.9952 2.71105e-06 43.2727 1.78814e-06 43.2727 1.78814e-06C43.2727 1.78814e-06 16.5503 2.71105e-06 9.88612 1.79129C6.20949 2.77694 3.31373 5.68113 2.33108 9.3692C0.54541 16.0535 0.54541 30 0.54541 30C0.54541 30 0.54541 43.9463 2.33108 50.6312C3.31373 54.3189 6.20949 57.223 9.88612 58.2091C16.5503 60 43.2727 60 43.2727 60C43.2727 60 69.9952 60 76.6592 58.2091C80.3362 57.223 83.2314 54.3189 84.2141 50.6312C85.9999 43.9463 85.9999 30 85.9999 30C85.9999 30 85.9999 16.0535 84.2141 9.3692Z" fill="#ED1D24"/>
<path d="M34.533 42.6624L56.8677 30.0007L34.533 17.3378V42.6624Z" fill="white"/>
</g>
<defs>
<clipPath id="clip0_213_452">
<rect width="85.4546" height="60" fill="white" transform="translate(0.54541)"/>
</clipPath>
</defs>
</svg>
